<?xml version="1.0" encoding="UTF-8"?>
<svg width="450px" height="146px" viewBox="0 0 450 146" version="1.1" xmlns="http://www.w3.org/2000/svg" xmlns:xlink="http://www.w3.org/1999/xlink">
    <!-- Generator: Sketch 55.1 (78136) - https://sketchapp.com -->
    <title>Group 29</title>
    <desc>Created with Sketch.</desc>
    <defs>
        <path d="M0.544,14.853 L40.876,55.284 C44.845,59.261 51.288,59.269 55.267,55.3 L55.267,55.3 C55.271,55.297 55.273,55.294 55.276,55.291 L55.276,55.291 C59.256,51.309 59.26,44.858 55.284,40.873 L55.284,40.873 L14.959,0.448 L0.544,14.853 Z" id="path-1"></path>
        <path d="M103.172916,0.187 L103.442964,0.187 C105.646937,0.219661848 107.845126,1.05246576 109.566,2.692 C109.673,2.796 109.777,2.899 109.881,3.007 C113.558,6.875 113.553,12.948 109.87,16.809 L48.559,81.113 C45.892,83.91 41.865,84.632 38.499,83.228 C36.981,82.774 35.556,81.932 34.385,80.703 L2.861,47.608 C0.963,45.617 0.01,43.058 0,40.496 L0,40.416 C0.01,37.858 0.962,35.302 2.857,33.312 C2.963,33.199 3.072,33.09 3.183,32.985 C6.941,29.406 12.89,29.549 16.469,33.307 L42.143,60.26 L96.74,2.999 C98.4894758,1.16415995 100.82334,0.221788494 103.172916,0.187 L103.172916,0.187 Z" id="path-3"></path>
        <linearGradient x1="0%" y1="-0.000560705882%" x2="0%" y2="1204.70532%" id="linearGradient-5">
            <stop stop-color="#3B268C" offset="0%"></stop>
            <stop stop-color="#8354CC" offset="100%"></stop>
        </linearGradient>
        <path d="M96.74,2.999 C98.523,1.129 100.913,0.186 103.308,0.186 C105.557,0.186 107.81,1.019 109.566,2.692 C109.673,2.796 109.777,2.899 109.881,3.007 C113.558,6.875 113.553,12.948 109.87,16.809 L48.559,81.113 C45.892,83.91 41.865,84.632 38.499,83.228 C36.981,82.774 35.556,81.932 34.385,80.703 L2.861,47.608 C0.963,45.617 0.01,43.058 0,40.496 L0,40.416 C0.01,37.858 0.962,35.302 2.857,33.312 C2.963,33.199 3.072,33.09 3.183,32.985 C6.941,29.406 12.89,29.549 16.469,33.307 L42.143,60.26" id="path-6"></path>
        <linearGradient x1="49.9998654%" y1="99.9993794%" x2="49.9998654%" y2="0.00053057561%" id="linearGradient-8">
            <stop stop-color="#3B268C" offset="0%"></stop>
            <stop stop-color="#8354CC" offset="100%"></stop>
        </linearGradient>
        <path d="M4.832,2.769 C1.911,4.957 1.122,8.061 0.923,8.98 L0.923,8.98 L0.923,45.336 C4.529,48.833 8.136,52.33 11.742,55.826 L11.742,55.826 L22.562,45.336 L22.562,8.98 C21.017,3.489 17.41,0.744 11.742,0.744 L11.742,0.744 C10.398,0.744 7.532,0.744 4.832,2.769 L4.832,2.769 Z" id="path-9"></path>
        <path d="M11.742,5.645 C8.137,5.645 4.529,3.896 0.923,0.4 L0.923,0.4 L0.923,28.925 C0.923,34.899 5.766,39.744 11.742,39.744 L11.742,39.744 C17.718,39.744 22.562,34.899 22.562,28.925 L22.562,28.925 L22.562,0.4 C18.956,3.896 15.349,5.645 11.742,5.645 L11.742,5.645 Z" id="path-11"></path>
        <polygon id="path-13" points="0.4126 0.7094 61.8886 0.7094 61.8886 88 0.4126 88"></polygon>
    </defs>
    <g id="Page-1" stroke="none" stroke-width="1" fill="none" fill-rule="evenodd">
        <g id="Group-29">
            <g id="Group-3" transform="translate(55.000000, 62.256000)">
                <mask id="mask-2" fill="white">
                    <use xlink:href="#path-1"></use>
                </mask>
                <g id="Clip-2"></g>
                <polygon id="Fill-1" fill="#FFFFFF" mask="url(#mask-2)" points="-4.456 63.271 63.263 63.271 63.263 -4.552 -4.456 -4.552"></polygon>
            </g>
            <g id="Group-10" transform="translate(0.000000, 0.256000)">
                <g id="Group-6">
                    <mask id="mask-4" fill="white">
                        <use xlink:href="#path-3"></use>
                    </mask>
                    <g id="Clip-5"></g>
                    <polygon id="Fill-4" fill="url(#linearGradient-5)" mask="url(#mask-4)" points="0 85.187 114 85.187 114 0.187 0 0.187"></polygon>
                </g>
                <g id="Group-9">
                    <mask id="mask-7" fill="white">
                        <use xlink:href="#path-6"></use>
                    </mask>
                    <g id="Clip-8"></g>
                    <path d="M96.74,2.999 L42.143,60.26 L16.469,33.307 C12.89,29.549 6.941,29.406 3.183,32.985 L3.183,32.985 C3.072,33.09 2.963,33.199 2.857,33.312 L2.857,33.312 C0.962,35.302 0.01,37.858 0,40.416 L0,40.416 L0,40.496 C0.01,43.058 0.963,45.617 2.861,47.608 L2.861,47.608 L34.385,80.703 C35.556,81.932 36.981,82.774 38.499,83.228 L38.499,83.228 C41.865,84.632 45.892,83.91 48.559,81.113 L48.559,81.113 L109.87,16.809 C113.553,12.948 113.558,6.875 109.881,3.007 L109.881,3.007 C109.777,2.899 109.673,2.796 109.566,2.692 L109.566,2.692 C107.81,1.019 105.557,0.186 103.308,0.186 L103.308,0.186 C100.913,0.186 98.523,1.129 96.74,2.999" id="Fill-7" fill="url(#linearGradient-8)" mask="url(#mask-7)"></path>
                </g>
            </g>
            <g id="Group-13" transform="translate(30.000000, 0.256000)">
                <mask id="mask-10" fill="white">
                    <use xlink:href="#path-9"></use>
                </mask>
                <g id="Clip-12"></g>
                <polygon id="Fill-11" fill="#FFFFFF" mask="url(#mask-10)" points="-4.077 60.826 27.562 60.826 27.562 -4.256 -4.077 -4.256"></polygon>
            </g>
            <g id="Group-16" transform="translate(30.000000, 81.256000)">
                <mask id="mask-12" fill="white">
                    <use xlink:href="#path-11"></use>
                </mask>
                <g id="Clip-15"></g>
                <polygon id="Fill-14" fill="#FFFFFF" mask="url(#mask-12)" points="-4.077 44.744 27.562 44.744 27.562 -4.601 -4.077 -4.601"></polygon>
            </g>
            <g id="Group-28" transform="translate(122.000000, 57.256000)">
                <path d="M16.708,27.6172 L45.229,27.6172 C44.844,22.2402 43.394,18.2172 40.878,15.5472 C38.362,12.8762 35.049,11.5412 30.939,11.5412 C27.021,11.5412 23.804,12.8962 21.289,15.6032 C18.772,18.3122 17.246,22.3162 16.708,27.6172 M47.476,36.5482 L16.708,36.5482 C16.746,40.1202 17.466,43.2702 18.869,45.9972 C20.271,48.7242 22.133,50.7792 24.458,52.1622 C26.781,53.5452 29.345,54.2362 32.149,54.2362 C34.031,54.2362 35.75,54.0152 37.306,53.5742 C38.862,53.1332 40.369,52.4412 41.829,51.5002 C43.289,50.5582 44.632,49.5512 45.862,48.4742 C47.091,47.3992 48.686,45.9392 50.645,44.0962 C51.451,43.4042 52.604,43.0582 54.102,43.0582 C55.715,43.0582 57.02,43.5012 58.02,44.3842 C59.018,45.2672 59.518,46.5152 59.518,48.1292 C59.518,49.5512 58.96,51.2112 57.847,53.1132 C56.732,55.0132 55.052,56.8392 52.805,58.5862 C50.558,60.3352 47.735,61.7842 44.335,62.9362 C40.936,64.0892 37.027,64.6652 32.61,64.6652 C22.507,64.6652 14.653,61.7842 9.045,56.0222 C3.436,50.2612 0.633,42.4442 0.633,32.5722 C0.633,27.9252 1.324,23.6132 2.707,19.6372 C4.09,15.6622 6.106,12.2522 8.757,9.4092 C11.407,6.5682 14.671,4.3882 18.552,2.8702 C22.431,1.3532 26.733,0.5942 31.458,0.5942 C37.603,0.5942 42.875,1.8902 47.274,4.4842 C51.672,7.0752 54.966,10.4282 57.155,14.5372 C59.345,18.6482 60.439,22.8352 60.439,27.0982 C60.439,31.0552 59.306,33.6192 57.04,34.7912 C54.773,35.9632 51.585,36.5482 47.476,36.5482" id="Fill-17" fill="#FFFFFF"></path>
                <path d="M86.8281,27.6172 L115.3491,27.6172 C114.9641,22.2402 113.5141,18.2172 110.9981,15.5472 C108.4821,12.8762 105.1691,11.5412 101.0591,11.5412 C97.1411,11.5412 93.9241,12.8962 91.4091,15.6032 C88.8921,18.3122 87.3661,22.3162 86.8281,27.6172 M117.5961,36.5482 L86.8281,36.5482 C86.8661,40.1202 87.5861,43.2702 88.9891,45.9972 C90.3911,48.7242 92.2531,50.7792 94.5781,52.1622 C96.9011,53.5452 99.4651,54.2362 102.2691,54.2362 C104.1511,54.2362 105.8701,54.0152 107.4261,53.5742 C108.9821,53.1332 110.4891,52.4412 111.9491,51.5002 C113.4091,50.5582 114.7521,49.5512 115.9821,48.4742 C117.2111,47.3992 118.8061,45.9392 120.7651,44.0962 C121.5711,43.4042 122.7241,43.0582 124.2221,43.0582 C125.8351,43.0582 127.1401,43.5012 128.1401,44.3842 C129.1381,45.2672 129.6381,46.5152 129.6381,48.1292 C129.6381,49.5512 129.0801,51.2112 127.9671,53.1132 C126.8521,55.0132 125.1721,56.8392 122.9251,58.5862 C120.6781,60.3352 117.8551,61.7842 114.4551,62.9362 C111.0561,64.0892 107.1471,64.6652 102.7301,64.6652 C92.6271,64.6652 84.7731,61.7842 79.1651,56.0222 C73.5561,50.2612 70.7531,42.4442 70.7531,32.5722 C70.7531,27.9252 71.4441,23.6132 72.8271,19.6372 C74.2101,15.6622 76.2261,12.2522 78.8771,9.4092 C81.5271,6.5682 84.7911,4.3882 88.6721,2.8702 C92.5511,1.3532 96.8531,0.5942 101.5781,0.5942 C107.7231,0.5942 112.9951,1.8902 117.3941,4.4842 C121.7921,7.0752 125.0861,10.4282 127.2751,14.5372 C129.4651,18.6482 130.5591,22.8352 130.5591,27.0982 C130.5591,31.0552 129.4261,33.6192 127.1601,34.7912 C124.8931,35.9632 121.7051,36.5482 117.5961,36.5482" id="Fill-19" fill="#FFFFFF"></path>
                <g id="Group-23" transform="translate(140.000000, 0.000000)">
                    <mask id="mask-14" fill="white">
                        <use xlink:href="#path-13"></use>
                    </mask>
                    <g id="Clip-22"></g>
                    <path d="M46.1016,32.3994 C46.1016,28.2514 45.4686,24.6884 44.2016,21.7114 C42.9336,18.7354 41.1756,16.4494 38.9286,14.8554 C36.6816,13.2614 34.1946,12.4634 31.4666,12.4634 C27.1256,12.4634 23.4666,14.1734 20.4916,17.5914 C17.5136,21.0104 16.0256,26.0434 16.0256,32.6874 C16.0256,38.9494 17.5036,43.8174 20.4626,47.2934 C23.4196,50.7704 27.0876,52.5074 31.4666,52.5074 C34.0796,52.5074 36.4986,51.7504 38.7266,50.2324 C40.9546,48.7144 42.7406,46.4394 44.0856,43.4044 C45.4296,40.3704 46.1016,36.7024 46.1016,32.3994 M15.2776,9.5244 L15.2776,11.4264 C18.2346,7.7774 21.3066,5.0984 24.4966,3.3884 C27.6836,1.6804 31.2946,0.8244 35.3286,0.8244 C40.1676,0.8244 44.6226,2.0734 48.6956,4.5694 C52.7656,7.0664 55.9836,10.7164 58.3456,15.5174 C60.7076,20.3194 61.8886,26.0034 61.8886,32.5724 C61.8886,37.4124 61.2066,41.8584 59.8436,45.9104 C58.4806,49.9634 56.6076,53.3634 54.2266,56.1094 C51.8436,58.8554 49.0316,60.9684 45.7856,62.4474 C42.5386,63.9244 39.0526,64.6654 35.3286,64.6654 C30.8336,64.6654 27.0596,63.7614 24.0056,61.9574 C20.9526,60.1524 18.0426,57.5024 15.2776,54.0054 L15.2776,77.6284 C15.2776,84.5434 12.7606,88.0004 7.7286,88.0004 C4.7706,88.0004 2.8116,87.1074 1.8516,85.3204 C0.8916,83.5354 0.4126,80.9314 0.4126,77.5134 L0.4126,9.6404 C0.4126,6.6444 1.0646,4.4064 2.3716,2.9274 C3.6756,1.4494 5.4616,0.7094 7.7286,0.7094 C9.9556,0.7094 11.7716,1.4684 13.1736,2.9854 C14.5766,4.5034 15.2776,6.6834 15.2776,9.5244" id="Fill-21" fill="#FFFFFF" mask="url(#mask-14)"></path>
                </g>
                <path d="M227.6445,27.6172 L256.1645,27.6172 C255.7805,22.2402 254.3305,18.2172 251.8145,15.5472 C249.2985,12.8762 245.9855,11.5412 241.8745,11.5412 C237.9575,11.5412 234.7405,12.8962 232.2245,15.6032 C229.7085,18.3122 228.1815,22.3162 227.6445,27.6172 M258.4125,36.5482 L227.6445,36.5482 C227.6815,40.1202 228.4025,43.2702 229.8045,45.9972 C231.2075,48.7242 233.0685,50.7792 235.3935,52.1622 C237.7165,53.5452 240.2815,54.2362 243.0855,54.2362 C244.9665,54.2362 246.6865,54.0152 248.2425,53.5742 C249.7975,53.1332 251.3045,52.4412 252.7655,51.5002 C254.2245,50.5582 255.5685,49.5512 256.7985,48.4742 C258.0275,47.3992 259.6215,45.9392 261.5805,44.0962 C262.3865,43.4042 263.5395,43.0582 265.0375,43.0582 C266.6505,43.0582 267.9565,43.5012 268.9555,44.3842 C269.9545,45.2672 270.4535,46.5152 270.4535,48.1292 C270.4535,49.5512 269.8965,51.2112 268.7835,53.1132 C267.6675,55.0132 265.9885,56.8392 263.7415,58.5862 C261.4945,60.3352 258.6705,61.7842 255.2715,62.9362 C251.8725,64.0892 247.9625,64.6652 243.5465,64.6652 C233.4435,64.6652 225.5885,61.7842 219.9805,56.0222 C214.3725,50.2612 211.5685,42.4442 211.5685,32.5722 C211.5685,27.9252 212.2595,23.6132 213.6425,19.6372 C215.0255,15.6622 217.0425,12.2522 219.6935,9.4092 C222.3435,6.5682 225.6075,4.3882 229.4885,2.8702 C233.3675,1.3532 237.6695,0.5942 242.3945,0.5942 C248.5395,0.5942 253.8105,1.8902 258.2095,4.4842 C262.6075,7.0752 265.9025,10.4282 268.0915,14.5372 C270.2815,18.6482 271.3745,22.8352 271.3745,27.0982 C271.3745,31.0552 270.2425,33.6192 267.9765,34.7912 C265.7085,35.9632 262.5215,36.5482 258.4125,36.5482" id="Fill-24" fill="#FFFFFF"></path>
                <path d="M300.2422,41.9639 L300.2422,55.1009 C300.2422,58.2889 299.4922,60.6809 297.9942,62.2739 C296.4962,63.8669 294.5962,64.6649 292.2912,64.6649 C290.0232,64.6649 288.1612,63.8589 286.7012,62.2449 C285.2412,60.6319 284.5122,58.2509 284.5122,55.1009 L284.5122,11.3109 C284.5122,4.2439 287.0662,0.7099 292.1762,0.7099 C294.7872,0.7099 296.6702,1.5359 297.8222,3.1869 C298.9742,4.8389 299.6072,7.2779 299.7222,10.5049 C301.6042,7.2779 303.5352,4.8389 305.5132,3.1869 C307.4922,1.5359 310.1322,0.7099 313.4352,0.7099 C316.7392,0.7099 319.9472,1.5359 323.0582,3.1869 C326.1702,4.8389 327.7242,7.0289 327.7242,9.7559 C327.7242,11.6759 327.0622,13.2609 325.7372,14.5089 C324.4122,15.7579 322.9802,16.3819 321.4452,16.3819 C320.8692,16.3819 319.4762,16.0269 317.2672,15.3169 C315.0582,14.6049 313.1092,14.2499 311.4202,14.2499 C309.1152,14.2499 307.2322,14.8549 305.7732,16.0649 C304.3122,17.2759 303.1802,19.0709 302.3732,21.4519 C301.5662,23.8339 301.0102,26.6659 300.7032,29.9509 C300.3942,33.2349 300.2422,37.2389 300.2422,41.9639" id="Fill-26" fill="#FFFFFF"></path>
            </g>
        </g>
    </g>
</svg>