<svg width="209" height="43" viewBox="0 0 209 43" fill="none" xmlns="http://www.w3.org/2000/svg">
<path d="M13.7773 34.3663V42.4852H16.8005V31.3438L13.7873 34.353L13.7773 34.3663Z" fill="#1AAB00"/>
<path d="M0 17.5694V29.9691L2.95655 32.9251L3.02314 32.9917V14.5469L0.00998835 17.5594L0 17.5694Z" fill="#1AAB00"/>
<path d="M11.8527 20.1393H14.9425L17.899 17.1867L17.9656 17.1201H8.82959L11.8427 20.1293L11.8527 20.1393Z" fill="#1AAB00"/>
<path d="M13.8605 3.31225L10.904 6.26821L10.8374 6.33146H29.1627L26.1529 3.32224L26.1396 3.31225H13.8605Z" fill="#1AAB00"/>
<path d="M21.5651 31.2839H18.4387V42.4853H21.5651V31.2839Z" fill="#1AAB00"/>
<path d="M14.5629 -1.90735e-06H10.2879L7.52781 2.75956L7.51782 2.76955V7.04371L14.4964 0.0665738L14.5629 -1.90735e-06Z" fill="#1AAB00"/>
<path d="M7.04512 7.5166H2.7701L0.00998835 10.2728L0 10.2861V14.5603L6.97853 7.58318L7.04512 7.5166Z" fill="#1AAB00"/>
<path d="M23.2031 31.3438V42.4852H26.2229V34.3663L23.2664 31.4103L23.2031 31.3438Z" fill="#1AAB00"/>
<path d="M36.9768 14.5469V32.9917L39.99 29.9825L40 29.9691V17.5694L37.0434 14.6135L36.9768 14.5469Z" fill="#1AAB00"/>
<path d="M25.0473 20.1293L25.0573 20.1393H28.147L31.1036 17.1867L31.1702 17.1201H22.0342L25.0473 20.1293Z" fill="#1AAB00"/>
<path d="M21.5651 17.1201H18.4387V24.5067H21.5651V17.1201Z" fill="#1AAB00"/>
<path d="M30.9904 8.16211H9.00939L4.67112 12.4962L4.66113 12.5095V21.8301L7.61768 24.7861L7.68427 24.8526V13.7611L10.2613 11.1846H29.7385L32.3155 13.7611V24.8526L35.3287 21.8434L35.3387 21.8301V12.5095L31.0037 8.1721L30.9904 8.16211Z" fill="#1AAB00"/>
<path d="M4.66113 28.0783V34.6293L7.61768 37.5853L7.68427 37.6519V25.0591L4.67112 28.0683L4.66113 28.0783Z" fill="#1AAB00"/>
<path d="M32.3157 25.0591V37.6519L35.3288 34.6427L35.3388 34.6293V28.0783L32.3823 25.1223L32.3157 25.0591Z" fill="#1AAB00"/>
<path d="M24.5913 25.9814H15.4087L9.22923 32.1597L9.21924 32.1697V39.1867L12.1758 42.1427L12.2424 42.2093V33.4213L16.6606 29.004H23.3394L27.7576 33.4213V42.2093L30.7708 39.2L30.7808 39.1867V32.1697L24.6046 25.9914L24.5913 25.9814Z" fill="#1AAB00"/>
<path d="M32.482 7.04371V2.76955L29.7252 0.00998445L29.7152 -1.90735e-06H25.4402L32.4154 6.97713L32.482 7.04371Z" fill="#1AAB00"/>
<path d="M37.2432 7.52659L37.2299 7.5166H32.9548L39.9334 14.4937L40 14.5603V10.2861L37.2432 7.52659Z" fill="#1AAB00"/>
<path d="M53.424 21.1707V16.0347H56.352C56.784 16.0347 57.2 16.0667 57.6 16.1307C58 16.1947 58.352 16.3227 58.656 16.5147C58.96 16.6907 59.2 16.9467 59.376 17.2827C59.568 17.6187 59.664 18.0587 59.664 18.6027C59.664 19.1467 59.568 19.5867 59.376 19.9227C59.2 20.2587 58.96 20.5227 58.656 20.7147C58.352 20.8907 58 21.0107 57.6 21.0747C57.2 21.1387 56.784 21.1707 56.352 21.1707H53.424ZM49.656 13.1067V30.2427H53.424V24.0987H57.384C58.456 24.0987 59.368 23.9467 60.12 23.6427C60.872 23.3227 61.48 22.9067 61.944 22.3947C62.424 21.8827 62.768 21.2987 62.976 20.6427C63.2 19.9707 63.312 19.2907 63.312 18.6027C63.312 17.8987 63.2 17.2187 62.976 16.5627C62.768 15.9067 62.424 15.3227 61.944 14.8107C61.48 14.2987 60.872 13.8907 60.12 13.5867C59.368 13.2667 58.456 13.1067 57.384 13.1067H49.656ZM64.4398 13.1067V30.2427H67.8478V13.1067H64.4398ZM81.2113 30.2427V17.8347H77.8033V24.3387C77.8033 25.6027 77.5953 26.5147 77.1793 27.0747C76.7633 27.6187 76.0913 27.8907 75.1633 27.8907C74.3473 27.8907 73.7793 27.6427 73.4593 27.1467C73.1393 26.6347 72.9793 25.8667 72.9793 24.8427V17.8347H69.5713V25.4667C69.5713 26.2347 69.6353 26.9387 69.7633 27.5787C69.9073 28.2027 70.1473 28.7387 70.4833 29.1867C70.8193 29.6187 71.2753 29.9547 71.8513 30.1947C72.4433 30.4347 73.1953 30.5547 74.1073 30.5547C74.8273 30.5547 75.5313 30.3947 76.2193 30.0747C76.9073 29.7547 77.4673 29.2347 77.8993 28.5147H77.9713V30.2427H81.2113ZM87.1579 17.8347V14.1147H83.7499V17.8347H81.6859V20.1147H83.7499V27.4347C83.7499 28.0587 83.8539 28.5627 84.0619 28.9467C84.2699 29.3307 84.5499 29.6267 84.9019 29.8347C85.2699 30.0427 85.6859 30.1787 86.1499 30.2427C86.6299 30.3227 87.1339 30.3627 87.6619 30.3627C87.9979 30.3627 88.3419 30.3547 88.6939 30.3387C89.0459 30.3227 89.3659 30.2907 89.6539 30.2427V27.6027C89.4939 27.6347 89.3259 27.6587 89.1499 27.6747C88.9739 27.6907 88.7899 27.6987 88.5979 27.6987C88.0219 27.6987 87.6379 27.6027 87.4459 27.4107C87.2539 27.2187 87.1579 26.8347 87.1579 26.2587V20.1147H89.6539V17.8347H87.1579ZM101.955 30.2427V17.8347H98.5474V24.3387C98.5474 25.6027 98.3394 26.5147 97.9234 27.0747C97.5074 27.6187 96.8354 27.8907 95.9074 27.8907C95.0914 27.8907 94.5234 27.6427 94.2034 27.1467C93.8834 26.6347 93.7234 25.8667 93.7234 24.8427V17.8347H90.3154V25.4667C90.3154 26.2347 90.3794 26.9387 90.5074 27.5787C90.6514 28.2027 90.8914 28.7387 91.2274 29.1867C91.5634 29.6187 92.0194 29.9547 92.5954 30.1947C93.1874 30.4347 93.9394 30.5547 94.8514 30.5547C95.5714 30.5547 96.2754 30.3947 96.9634 30.0747C97.6514 29.7547 98.2114 29.2347 98.6434 28.5147H98.7154V30.2427H101.955ZM106.222 26.2107H102.982C103.014 27.0427 103.198 27.7387 103.534 28.2987C103.886 28.8427 104.326 29.2827 104.854 29.6187C105.398 29.9547 106.014 30.1947 106.702 30.3387C107.39 30.4827 108.094 30.5547 108.814 30.5547C109.518 30.5547 110.206 30.4827 110.878 30.3387C111.566 30.2107 112.174 29.9787 112.702 29.6427C113.23 29.3067 113.654 28.8667 113.974 28.3227C114.31 27.7627 114.478 27.0747 114.478 26.2587C114.478 25.6827 114.366 25.2027 114.142 24.8187C113.918 24.4187 113.622 24.0907 113.254 23.8347C112.886 23.5627 112.462 23.3467 111.982 23.1867C111.518 23.0267 111.038 22.8907 110.542 22.7787C110.062 22.6667 109.59 22.5627 109.126 22.4667C108.662 22.3707 108.246 22.2667 107.878 22.1547C107.526 22.0267 107.238 21.8667 107.014 21.6747C106.79 21.4827 106.678 21.2347 106.678 20.9307C106.678 20.6747 106.742 20.4747 106.87 20.3307C106.998 20.1707 107.15 20.0507 107.326 19.9707C107.518 19.8907 107.726 19.8427 107.95 19.8267C108.174 19.7947 108.382 19.7787 108.574 19.7787C109.182 19.7787 109.71 19.8987 110.158 20.1387C110.606 20.3627 110.854 20.8027 110.902 21.4587H114.142C114.078 20.6907 113.878 20.0587 113.542 19.5627C113.222 19.0507 112.814 18.6427 112.318 18.3387C111.822 18.0347 111.254 17.8187 110.614 17.6907C109.99 17.5627 109.342 17.4987 108.67 17.4987C107.998 17.4987 107.342 17.5627 106.702 17.6907C106.062 17.8027 105.486 18.0107 104.974 18.3147C104.462 18.6027 104.046 19.0027 103.726 19.5147C103.422 20.0267 103.27 20.6827 103.27 21.4827C103.27 22.0267 103.382 22.4907 103.606 22.8747C103.83 23.2427 104.126 23.5547 104.494 23.8107C104.862 24.0507 105.278 24.2507 105.742 24.4107C106.222 24.5547 106.71 24.6827 107.206 24.7947C108.422 25.0507 109.366 25.3067 110.038 25.5627C110.726 25.8187 111.07 26.2027 111.07 26.7147C111.07 27.0187 110.998 27.2747 110.854 27.4827C110.71 27.6747 110.526 27.8347 110.302 27.9627C110.094 28.0747 109.854 28.1627 109.582 28.2267C109.326 28.2747 109.078 28.2987 108.838 28.2987C108.502 28.2987 108.174 28.2587 107.854 28.1787C107.55 28.0987 107.278 27.9787 107.038 27.8187C106.798 27.6427 106.598 27.4267 106.438 27.1707C106.294 26.8987 106.222 26.5787 106.222 26.2107ZM115.945 13.1067V30.2427H121.873C124.481 30.1787 126.441 29.4507 127.753 28.0587C129.081 26.6507 129.745 24.5227 129.745 21.6747C129.745 18.8267 129.081 16.7067 127.753 15.3147C126.441 13.9067 124.481 13.1707 121.873 13.1067H115.945ZM117.577 28.8507V14.4987H121.057C122.289 14.4987 123.345 14.6347 124.225 14.9067C125.121 15.1627 125.857 15.5787 126.433 16.1547C127.009 16.7307 127.433 17.4747 127.705 18.3867C127.977 19.2987 128.113 20.3947 128.113 21.6747C128.113 22.9547 127.977 24.0507 127.705 24.9627C127.433 25.8747 127.009 26.6187 126.433 27.1947C125.857 27.7707 125.121 28.1947 124.225 28.4667C123.345 28.7227 122.289 28.8507 121.057 28.8507H117.577ZM133.838 23.5227L137.27 14.7387L140.582 23.5227H133.838ZM136.43 13.1067L129.542 30.2427H131.27L133.334 24.9147H141.134L143.222 30.2427H144.974L138.254 13.1067H136.43ZM146.291 21.6747C146.291 20.7307 146.411 19.8107 146.651 18.9147C146.907 18.0187 147.291 17.2187 147.803 16.5147C148.331 15.7947 149.003 15.2187 149.819 14.7867C150.635 14.3547 151.611 14.1387 152.747 14.1387C153.883 14.1387 154.851 14.3547 155.651 14.7867C156.467 15.2187 157.131 15.7947 157.643 16.5147C158.171 17.2187 158.555 18.0187 158.795 18.9147C159.051 19.8107 159.179 20.7307 159.179 21.6747C159.179 22.6027 159.051 23.5227 158.795 24.4347C158.555 25.3307 158.171 26.1387 157.643 26.8587C157.131 27.5627 156.467 28.1307 155.651 28.5627C154.851 28.9947 153.883 29.2107 152.747 29.2107C151.611 29.2107 150.635 28.9947 149.819 28.5627C149.003 28.1307 148.331 27.5627 147.803 26.8587C147.291 26.1387 146.907 25.3307 146.651 24.4347C146.411 23.5227 146.291 22.6027 146.291 21.6747ZM144.659 21.6747C144.659 22.8587 144.827 23.9867 145.163 25.0587C145.499 26.1307 146.003 27.0747 146.675 27.8907C147.347 28.7067 148.187 29.3627 149.195 29.8587C150.219 30.3387 151.403 30.5787 152.747 30.5787C154.091 30.5787 155.267 30.3387 156.275 29.8587C157.283 29.3627 158.123 28.7067 158.795 27.8907C159.467 27.0747 159.971 26.1307 160.307 25.0587C160.643 23.9867 160.811 22.8587 160.811 21.6747C160.811 20.4907 160.643 19.3627 160.307 18.2907C159.971 17.2187 159.467 16.2747 158.795 15.4587C158.123 14.6267 157.283 13.9707 156.275 13.4907C155.267 12.9947 154.091 12.7467 152.747 12.7467C151.403 12.7467 150.219 12.9947 149.195 13.4907C148.187 13.9707 147.347 14.6267 146.675 15.4587C146.003 16.2747 145.499 17.2187 145.163 18.2907C144.827 19.3627 144.659 20.4907 144.659 21.6747Z" fill="#141E12"/>
<path d="M174.08 26.2427L176.18 20.0387H174.488L173.18 24.2747H173.156L171.848 20.0387H170.06L172.184 26.2427H174.08ZM180.818 22.4747H178.046C178.054 22.3547 178.078 22.2187 178.118 22.0667C178.166 21.9147 178.242 21.7707 178.346 21.6347C178.458 21.4987 178.602 21.3867 178.778 21.2987C178.962 21.2027 179.19 21.1547 179.462 21.1547C179.878 21.1547 180.186 21.2667 180.386 21.4907C180.594 21.7147 180.738 22.0427 180.818 22.4747ZM178.046 23.5547H182.522C182.554 23.0747 182.514 22.6147 182.402 22.1747C182.29 21.7347 182.106 21.3427 181.85 20.9987C181.602 20.6547 181.282 20.3827 180.89 20.1827C180.498 19.9747 180.038 19.8707 179.51 19.8707C179.038 19.8707 178.606 19.9547 178.214 20.1227C177.83 20.2907 177.498 20.5227 177.218 20.8187C176.938 21.1067 176.722 21.4507 176.57 21.8507C176.418 22.2507 176.342 22.6827 176.342 23.1467C176.342 23.6267 176.414 24.0667 176.558 24.4667C176.71 24.8667 176.922 25.2107 177.194 25.4987C177.466 25.7867 177.798 26.0107 178.19 26.1707C178.582 26.3227 179.022 26.3987 179.51 26.3987C180.214 26.3987 180.814 26.2387 181.31 25.9187C181.806 25.5987 182.174 25.0667 182.414 24.3227H180.914C180.858 24.5147 180.706 24.6987 180.458 24.8747C180.21 25.0427 179.914 25.1267 179.57 25.1267C179.09 25.1267 178.722 25.0027 178.466 24.7547C178.21 24.5067 178.07 24.1067 178.046 23.5547ZM183.293 20.0387V26.2427H184.997V23.4467C184.997 23.1667 185.025 22.9067 185.081 22.6667C185.137 22.4267 185.229 22.2187 185.357 22.0427C185.493 21.8587 185.669 21.7147 185.885 21.6107C186.101 21.5067 186.365 21.4547 186.677 21.4547C186.781 21.4547 186.889 21.4627 187.001 21.4787C187.113 21.4867 187.209 21.4987 187.289 21.5147V19.9307C187.153 19.8907 187.029 19.8707 186.917 19.8707C186.701 19.8707 186.493 19.9027 186.293 19.9667C186.093 20.0307 185.905 20.1227 185.729 20.2427C185.553 20.3547 185.397 20.4947 185.261 20.6627C185.125 20.8227 185.017 20.9987 184.937 21.1907H184.913V20.0387H183.293ZM186.687 24.3947V26.2427H188.571V24.3947H186.687ZM196.871 26.2427V17.8427H195.515C195.467 18.1627 195.367 18.4307 195.215 18.6467C195.063 18.8627 194.875 19.0387 194.651 19.1747C194.435 19.3027 194.187 19.3947 193.907 19.4507C193.635 19.4987 193.351 19.5187 193.055 19.5107V20.7947H195.167V26.2427H196.871ZM199.315 24.3947V26.2427H201.199V24.3947H199.315ZM203.651 22.0067C203.651 21.8627 203.651 21.6907 203.651 21.4907C203.659 21.2827 203.675 21.0707 203.699 20.8547C203.723 20.6387 203.763 20.4267 203.819 20.2187C203.875 20.0027 203.951 19.8107 204.047 19.6427C204.151 19.4747 204.279 19.3387 204.431 19.2347C204.591 19.1307 204.787 19.0787 205.019 19.0787C205.251 19.0787 205.447 19.1307 205.607 19.2347C205.767 19.3387 205.899 19.4747 206.003 19.6427C206.107 19.8107 206.183 20.0027 206.231 20.2187C206.287 20.4267 206.327 20.6387 206.351 20.8547C206.383 21.0707 206.399 21.2827 206.399 21.4907C206.407 21.6907 206.411 21.8627 206.411 22.0067C206.411 22.2467 206.403 22.5387 206.387 22.8827C206.371 23.2187 206.319 23.5467 206.231 23.8667C206.151 24.1787 206.015 24.4467 205.823 24.6707C205.639 24.8947 205.371 25.0067 205.019 25.0067C204.675 25.0067 204.411 24.8947 204.227 24.6707C204.043 24.4467 203.907 24.1787 203.819 23.8667C203.739 23.5467 203.691 23.2187 203.675 22.8827C203.659 22.5387 203.651 22.2467 203.651 22.0067ZM201.947 22.0067C201.947 22.8467 202.027 23.5507 202.187 24.1187C202.355 24.6787 202.579 25.1267 202.859 25.4627C203.139 25.7987 203.463 26.0387 203.831 26.1827C204.207 26.3267 204.603 26.3987 205.019 26.3987C205.443 26.3987 205.839 26.3267 206.207 26.1827C206.583 26.0387 206.911 25.7987 207.191 25.4627C207.479 25.1267 207.703 24.6787 207.863 24.1187C208.031 23.5507 208.115 22.8467 208.115 22.0067C208.115 21.1907 208.031 20.5067 207.863 19.9547C207.703 19.3947 207.479 18.9467 207.191 18.6107C206.911 18.2747 206.583 18.0347 206.207 17.8907C205.839 17.7467 205.443 17.6747 205.019 17.6747C204.603 17.6747 204.207 17.7467 203.831 17.8907C203.463 18.0347 203.139 18.2747 202.859 18.6107C202.579 18.9467 202.355 19.3947 202.187 19.9547C202.027 20.5067 201.947 21.1907 201.947 22.0067Z" fill="#1AAB00"/>
</svg>
