<svg width="254" height="43" viewBox="0 0 254 43" fill="none" xmlns="http://www.w3.org/2000/svg">
<path d="M13.8237 34.4819V42.6281H16.857V31.4492L13.8338 34.4685L13.8237 34.4819Z" fill="url(#paint0_linear_116_113)"/>
<path d="M0 17.6285V30.07L3.03331 33.1027V14.5958L0 17.6285Z" fill="url(#paint1_linear_116_113)"/>
<path d="M11.8926 20.2071H14.9927L18.026 17.1777H8.85929L11.8926 20.2071Z" fill="url(#paint2_linear_116_113)"/>
<path d="M13.9073 3.3234L10.9408 6.2893L10.8739 6.35276H29.2609L26.2409 3.33342L26.2276 3.3234H13.9073Z" fill="url(#paint3_linear_116_113)"/>
<path d="M21.6375 31.3892H18.5007V42.6282H21.6375V31.3892Z" fill="url(#paint4_linear_116_113)"/>
<path d="M14.6119 0H10.3225L7.54303 2.77887V7.06741L14.6119 0Z" fill="url(#paint5_linear_116_113)"/>
<path d="M7.06882 7.54189H2.77942L0.010022 10.3074L0 10.3208V14.6093L7.06882 7.54189Z" fill="url(#paint6_linear_116_113)"/>
<path d="M23.2811 31.4492V42.6281H26.311V34.4819L23.3446 31.516L23.2811 31.4492Z" fill="url(#paint7_linear_116_113)"/>
<path d="M37.1013 14.5958V33.1027L40.1245 30.0833L40.1346 30.07V17.6285L37.1013 14.5958Z" fill="url(#paint8_linear_116_113)"/>
<path d="M25.1417 20.2071H28.2418L31.2751 17.1777H22.1084L25.1417 20.2071Z" fill="url(#paint9_linear_116_113)"/>
<path d="M21.6375 17.1777H18.5007V24.5891H21.6375V17.1777Z" fill="url(#paint10_linear_116_113)"/>
<path d="M31.0948 8.18957H9.03981L4.68694 12.5382L4.67692 12.5516V21.9035L7.71023 24.9362V13.8074L10.2959 11.2223H29.8387L32.4244 13.8074V24.9362L35.4477 21.9169L35.4577 21.9035V12.5516L31.1081 8.19959L31.0948 8.18957Z" fill="url(#paint11_linear_116_113)"/>
<path d="M4.67692 28.1728V34.7458L7.71023 37.7785V25.1434L4.67692 28.1728Z" fill="url(#paint12_linear_116_113)"/>
<path d="M32.4243 25.1434V37.7785L35.4476 34.7592L35.4576 34.7458V28.1728L32.4911 25.2068L32.4243 25.1434Z" fill="url(#paint13_linear_116_113)"/>
<path d="M24.6741 26.0689H15.4606L9.25033 32.2779V39.3186L12.2836 42.3513V33.5337L16.7167 29.1016H23.418L27.8511 33.5337V42.3513L30.8744 39.3319L30.8844 39.3186V32.2779L24.6875 26.0789L24.6741 26.0689Z" fill="url(#paint14_linear_116_113)"/>
<path d="M32.5912 7.06741V2.77887L29.8151 0H25.5257L32.5912 7.06741Z" fill="url(#paint15_linear_116_113)"/>
<path d="M37.3684 7.55191L37.355 7.54189H33.0656L40.1344 14.6093V10.3208L37.3684 7.55191Z" fill="url(#paint16_linear_116_113)"/>
<path d="M55.4178 21.2178V14.3468H59.3349C59.9129 14.3468 60.4694 14.3896 61.0045 14.4752C61.5397 14.5608 62.0106 14.7321 62.4173 14.9889C62.824 15.2244 63.1451 15.5669 63.3805 16.0164C63.6374 16.4659 63.7658 17.0545 63.7658 17.7823C63.7658 18.5101 63.6374 19.0987 63.3805 19.5482C63.1451 19.9977 62.824 20.3509 62.4173 20.6078C62.0106 20.8432 61.5397 21.0038 61.0045 21.0894C60.4694 21.175 59.9129 21.2178 59.3349 21.2178H55.4178ZM50.3769 10.4296V33.3545H55.4178V25.135H60.7156C62.1497 25.135 63.3698 24.9316 64.3759 24.5249C65.3819 24.0968 66.1953 23.5403 66.816 22.8553C67.4582 22.1703 67.9184 21.3891 68.1967 20.5114C68.4963 19.6124 68.6462 18.7027 68.6462 17.7823C68.6462 16.8405 68.4963 15.9308 68.1967 15.0531C67.9184 14.1755 67.4582 13.3943 66.816 12.7093C66.1953 12.0243 65.3819 11.4785 64.3759 11.0718C63.3698 10.6437 62.1497 10.4296 60.7156 10.4296H50.3769Z" fill="#EAEAEA"/>
<path d="M70.155 10.4296V33.3545H74.7143V10.4296H70.155Z" fill="#EAEAEA"/>
<path d="M92.5922 33.3545V16.7549H88.0329V25.456C88.0329 27.147 87.7547 28.3671 87.1981 29.1163C86.6416 29.8441 85.7426 30.208 84.5011 30.208C83.4094 30.208 82.6495 29.8762 82.2214 29.2126C81.7933 28.5277 81.5793 27.5002 81.5793 26.1303V16.7549H77.02V26.9651C77.02 27.9925 77.1056 28.9344 77.2769 29.7906C77.4695 30.6254 77.7906 31.3424 78.2401 31.9418C78.6896 32.5197 79.2996 32.9692 80.0702 33.2903C80.8622 33.6114 81.8682 33.7719 83.0883 33.7719C84.0516 33.7719 84.9934 33.5579 85.9138 33.1298C86.8342 32.7017 87.5834 32.006 88.1614 31.0428H88.2577V33.3545H92.5922Z" fill="#EAEAEA"/>
<path d="M100.548 16.7549V11.7782H95.9883V16.7549H93.2271V19.8051H95.9883V29.5979C95.9883 30.4327 96.1275 31.107 96.4057 31.6207C96.684 32.1344 97.0586 32.5304 97.5295 32.8087C98.0218 33.0869 98.5784 33.2689 99.1991 33.3545C99.8413 33.4615 100.516 33.5151 101.222 33.5151C101.671 33.5151 102.132 33.5043 102.603 33.4829C103.073 33.4615 103.502 33.4187 103.887 33.3545V29.8227C103.673 29.8655 103.448 29.8976 103.213 29.919C102.977 29.9404 102.731 29.9511 102.474 29.9511C101.704 29.9511 101.19 29.8227 100.933 29.5658C100.676 29.3089 100.548 28.7952 100.548 28.0246V19.8051H103.887V16.7549H100.548Z" fill="#EAEAEA"/>
<path d="M120.344 33.3545V16.7549H115.785V25.456C115.785 27.147 115.506 28.3671 114.95 29.1163C114.393 29.8441 113.494 30.208 112.253 30.208C111.161 30.208 110.401 29.8762 109.973 29.2126C109.545 28.5277 109.331 27.5002 109.331 26.1303V16.7549H104.772V26.9651C104.772 27.9925 104.857 28.9344 105.029 29.7906C105.221 30.6254 105.542 31.3424 105.992 31.9418C106.441 32.5197 107.051 32.9692 107.822 33.2903C108.614 33.6114 109.62 33.7719 110.84 33.7719C111.803 33.7719 112.745 33.5579 113.666 33.1298C114.586 32.7017 115.335 32.006 115.913 31.0428H116.009V33.3545H120.344Z" fill="#EAEAEA"/>
<path d="M126.052 27.9604H121.717C121.76 29.0735 122.006 30.0046 122.456 30.7538C122.927 31.4816 123.515 32.0702 124.222 32.5197C124.95 32.9692 125.774 33.2903 126.694 33.4829C127.614 33.6756 128.556 33.7719 129.52 33.7719C130.461 33.7719 131.382 33.6756 132.281 33.4829C133.201 33.3117 134.015 33.0013 134.721 32.5518C135.427 32.1023 135.995 31.5137 136.423 30.7859C136.872 30.0367 137.097 29.1163 137.097 28.0246C137.097 27.2541 136.947 26.6119 136.647 26.0982C136.348 25.5631 135.952 25.1243 135.459 24.7818C134.967 24.4179 134.4 24.1289 133.758 23.9149C133.137 23.7008 132.495 23.5189 131.831 23.369C131.189 23.2192 130.558 23.0801 129.937 22.9516C129.316 22.8232 128.76 22.6841 128.267 22.5342C127.796 22.363 127.411 22.1489 127.111 21.8921C126.812 21.6352 126.662 21.3034 126.662 20.8967C126.662 20.5543 126.748 20.2867 126.919 20.094C127.09 19.88 127.293 19.7195 127.529 19.6124C127.786 19.5054 128.064 19.4412 128.364 19.4198C128.663 19.377 128.942 19.3556 129.198 19.3556C130.012 19.3556 130.718 19.5161 131.318 19.8372C131.917 20.1369 132.249 20.7255 132.313 21.6031H136.647C136.562 20.5757 136.294 19.7302 135.845 19.0666C135.417 18.3816 134.871 17.8358 134.207 17.4291C133.544 17.0224 132.784 16.7334 131.928 16.5622C131.093 16.391 130.226 16.3053 129.327 16.3053C128.428 16.3053 127.55 16.391 126.694 16.5622C125.838 16.712 125.067 16.9903 124.382 17.397C123.697 17.7823 123.141 18.3174 122.713 19.0024C122.306 19.6874 122.103 20.565 122.103 21.6352C122.103 22.363 122.252 22.9837 122.552 23.4975C122.852 23.9898 123.248 24.4072 123.74 24.7497C124.232 25.0707 124.789 25.3383 125.41 25.5524C126.052 25.745 126.705 25.9162 127.368 26.0661C128.995 26.4086 130.258 26.751 131.157 27.0935C132.077 27.436 132.538 27.9497 132.538 28.6347C132.538 29.0414 132.441 29.3839 132.249 29.6621C132.056 29.919 131.81 30.133 131.51 30.3043C131.232 30.4541 130.911 30.5718 130.547 30.6575C130.204 30.7217 129.873 30.7538 129.552 30.7538C129.102 30.7538 128.663 30.7003 128.235 30.5933C127.829 30.4862 127.465 30.3257 127.144 30.1116C126.822 29.8762 126.555 29.5872 126.341 29.2447C126.148 28.8808 126.052 28.4527 126.052 27.9604Z" fill="#EAEAEA"/>
<path d="M139.059 10.4296V33.3545H146.99C150.479 33.2689 153.101 32.295 154.856 30.4327C156.633 28.5491 157.521 25.7022 157.521 21.8921C157.521 18.082 156.633 15.2458 154.856 13.3836C153.101 11.4999 150.479 10.5153 146.99 10.4296H139.059ZM141.242 31.4923V12.2919H145.898C147.546 12.2919 148.959 12.4738 150.136 12.8377C151.335 13.1802 152.319 13.7367 153.09 14.5073C153.861 15.2779 154.428 16.2732 154.792 17.4933C155.156 18.7134 155.338 20.1797 155.338 21.8921C155.338 23.6045 155.156 25.0707 154.792 26.2908C154.428 27.5109 153.861 28.5063 153.09 29.2768C152.319 30.0474 151.335 30.6147 150.136 30.9785C148.959 31.321 147.546 31.4923 145.898 31.4923H141.242Z" fill="#EAEAEA"/>
<path d="M162.998 24.3644L167.589 12.613L172.02 24.3644H162.998ZM166.465 10.4296L157.25 33.3545H159.562L162.323 26.2266H172.758L175.552 33.3545H177.895L168.905 10.4296H166.465Z" fill="#EAEAEA"/>
<path d="M179.658 21.8921C179.658 20.6292 179.818 19.3984 180.139 18.1997C180.482 17.001 180.995 15.9308 181.68 14.9889C182.387 14.0257 183.286 13.2551 184.377 12.6772C185.469 12.0992 186.775 11.8103 188.295 11.8103C189.814 11.8103 191.109 12.0992 192.18 12.6772C193.271 13.2551 194.16 14.0257 194.845 14.9889C195.551 15.9308 196.065 17.001 196.386 18.1997C196.728 19.3984 196.899 20.6292 196.899 21.8921C196.899 23.1336 196.728 24.3644 196.386 25.5845C196.065 26.7831 195.551 27.8641 194.845 28.8273C194.16 29.7692 193.271 30.529 192.18 31.107C191.109 31.6849 189.814 31.9739 188.295 31.9739C186.775 31.9739 185.469 31.6849 184.377 31.107C183.286 30.529 182.387 29.7692 181.68 28.8273C180.995 27.8641 180.482 26.7831 180.139 25.5845C179.818 24.3644 179.658 23.1336 179.658 21.8921ZM177.474 21.8921C177.474 23.4761 177.699 24.9851 178.149 26.4193C178.598 27.8534 179.272 29.1163 180.171 30.208C181.07 31.2996 182.194 32.1772 183.543 32.8408C184.913 33.4829 186.497 33.804 188.295 33.804C190.093 33.804 191.666 33.4829 193.014 32.8408C194.363 32.1772 195.487 31.2996 196.386 30.208C197.285 29.1163 197.959 27.8534 198.409 26.4193C198.858 24.9851 199.083 23.4761 199.083 21.8921C199.083 20.3081 198.858 18.799 198.409 17.3649C197.959 15.9308 197.285 14.6679 196.386 13.5762C195.487 12.4631 194.363 11.5855 193.014 10.9434C191.666 10.2798 190.093 9.94803 188.295 9.94803C186.497 9.94803 184.913 10.2798 183.543 10.9434C182.194 11.5855 181.07 12.4631 180.171 13.5762C179.272 14.6679 178.598 15.9308 178.149 17.3649C177.699 18.799 177.474 20.3081 177.474 21.8921Z" fill="#EAEAEA"/>
<path d="M212.45 16.3013H214.319L218.182 26.331H216.299L215.358 23.6761H211.355L210.413 26.331H208.601L212.45 16.3013ZM211.832 22.3416H214.895L213.391 18.0291H213.349L211.832 22.3416Z" fill="#4FCE0D"/>
<path d="M218.856 16.3013H220.612V24.8139H225.711V26.331H218.856V16.3013Z" fill="#4FCE0D"/>
<path d="M226.641 16.3013H231.066C231.777 16.3013 232.358 16.4043 232.808 16.6104C233.257 16.8164 233.604 17.0739 233.847 17.383C234.091 17.692 234.254 18.0291 234.339 18.3944C234.432 18.7596 234.479 19.0967 234.479 19.4057C234.479 19.7148 234.432 20.0519 234.339 20.4171C234.254 20.773 234.091 21.1054 233.847 21.4145C233.604 21.7235 233.257 21.981 232.808 22.1871C232.358 22.3837 231.777 22.4821 231.066 22.4821H228.397V26.331H226.641V16.3013ZM228.397 21.0493H230.967C231.164 21.0493 231.365 21.0212 231.571 20.965C231.777 20.9088 231.965 20.8198 232.133 20.6981C232.311 20.567 232.452 20.3984 232.555 20.1924C232.667 19.977 232.723 19.7101 232.723 19.3917C232.723 19.0639 232.676 18.7924 232.583 18.577C232.489 18.3616 232.363 18.193 232.204 18.0713C232.044 17.9402 231.862 17.8512 231.656 17.8044C231.45 17.7575 231.23 17.7341 230.995 17.7341H228.397V21.0493Z" fill="#4FCE0D"/>
<path d="M235.687 16.3013H237.443V20.2907H242.008V16.3013H243.764V26.331H242.008V21.8078H237.443V26.331H235.687V16.3013Z" fill="#4FCE0D"/>
<path d="M248.269 16.3013H250.137L254 26.331H252.118L251.177 23.6761H247.173L246.232 26.331H244.42L248.269 16.3013ZM247.651 22.3416H250.713L249.21 18.0291H249.168L247.651 22.3416Z" fill="#4FCE0D"/>
<defs>
<linearGradient id="paint0_linear_116_113" x1="127" y1="68.0498" x2="127" y2="-148.632" gradientUnits="userSpaceOnUse">
<stop stop-color="#4FCE0D"/>
<stop offset="1" stop-color="#4FEA0D"/>
</linearGradient>
<linearGradient id="paint1_linear_116_113" x1="127" y1="79.925" x2="127" y2="-50.96" gradientUnits="userSpaceOnUse">
<stop stop-color="#4FCE0D"/>
<stop offset="1" stop-color="#4FCE0D"/>
</linearGradient>
<linearGradient id="paint2_linear_116_113" x1="10221" y1="6291.5" x2="10221" y2="-960.84" gradientUnits="userSpaceOnUse">
<stop stop-color="#4FCE0D"/>
<stop offset="1" stop-color="#4FCE0D"/>
</linearGradient>
<linearGradient id="paint3_linear_116_113" x1="15257.8" y1="6291.5" x2="15257.8" y2="-960.84" gradientUnits="userSpaceOnUse">
<stop stop-color="#4FCE0D"/>
<stop offset="1" stop-color="#4FCE0D"/>
</linearGradient>
<linearGradient id="paint4_linear_116_113" x1="15257.8" y1="6291.5" x2="15257.8" y2="-960.84" gradientUnits="userSpaceOnUse">
<stop stop-color="#4FCE0D"/>
<stop offset="1" stop-color="#4FCE0D"/>
</linearGradient>
<linearGradient id="paint5_linear_116_113" x1="8422.64" y1="6291.5" x2="8422.64" y2="-960.84" gradientUnits="userSpaceOnUse">
<stop stop-color="#4FCE0D"/>
<stop offset="1" stop-color="#4FCE0D"/>
</linearGradient>
<linearGradient id="paint6_linear_116_113" x1="2687.32" y1="6291.5" x2="2687.32" y2="-960.84" gradientUnits="userSpaceOnUse">
<stop stop-color="#4FCE0D"/>
<stop offset="1" stop-color="#4FCE0D"/>
</linearGradient>
<linearGradient id="paint7_linear_116_113" x1="18851.9" y1="6291.5" x2="18851.9" y2="-960.84" gradientUnits="userSpaceOnUse">
<stop stop-color="#4FCE0D"/>
<stop offset="1" stop-color="#4FCE0D"/>
</linearGradient>
<linearGradient id="paint8_linear_116_113" x1="29362.4" y1="6291.5" x2="29362.4" y2="-960.84" gradientUnits="userSpaceOnUse">
<stop stop-color="#4FCE0D"/>
<stop offset="1" stop-color="#4FCE0D"/>
</linearGradient>
<linearGradient id="paint9_linear_116_113" x1="20294.6" y1="6291.5" x2="20294.6" y2="-960.84" gradientUnits="userSpaceOnUse">
<stop stop-color="#4FCE0D"/>
<stop offset="1" stop-color="#4FCE0D"/>
</linearGradient>
<linearGradient id="paint10_linear_116_113" x1="15257.8" y1="6291.5" x2="15257.8" y2="-960.84" gradientUnits="userSpaceOnUse">
<stop stop-color="#4FCE0D"/>
<stop offset="1" stop-color="#4FCE0D"/>
</linearGradient>
<linearGradient id="paint11_linear_116_113" x1="15257.8" y1="6291.5" x2="15257.8" y2="-960.84" gradientUnits="userSpaceOnUse">
<stop stop-color="#4FCE0D"/>
<stop offset="1" stop-color="#4FCE0D"/>
</linearGradient>
<linearGradient id="paint12_linear_116_113" x1="4709.16" y1="6291.5" x2="4709.16" y2="-960.84" gradientUnits="userSpaceOnUse">
<stop stop-color="#4FCE0D"/>
<stop offset="1" stop-color="#4FCE0D"/>
</linearGradient>
<linearGradient id="paint13_linear_116_113" x1="25806.4" y1="6291.5" x2="25806.4" y2="-960.84" gradientUnits="userSpaceOnUse">
<stop stop-color="#4FCE0D"/>
<stop offset="1" stop-color="#4FCE0D"/>
</linearGradient>
<linearGradient id="paint14_linear_116_113" x1="15257.8" y1="6291.5" x2="15257.8" y2="-960.84" gradientUnits="userSpaceOnUse">
<stop stop-color="#4FCE0D"/>
<stop offset="1" stop-color="#4FCE0D"/>
</linearGradient>
<linearGradient id="paint15_linear_116_113" x1="22092.9" y1="6291.5" x2="22092.9" y2="-960.84" gradientUnits="userSpaceOnUse">
<stop stop-color="#4FCE0D"/>
<stop offset="1" stop-color="#4FCE0D"/>
</linearGradient>
<linearGradient id="paint16_linear_116_113" x1="27828.2" y1="6291.5" x2="27828.2" y2="-960.84" gradientUnits="userSpaceOnUse">
<stop stop-color="#4FCE0D"/>
<stop offset="1" stop-color="#4FCE0D"/>
</linearGradient>
</defs>
</svg>
