<?xml version="1.0" encoding="UTF-8"?><svg xmlns="http://www.w3.org/2000/svg" viewBox="0 0 362.27 114.69"><defs><style>.d{fill:#004c23;}</style></defs><g id="a"/><g id="b"><g id="c"><g><path class="d" d="M143.29,46.45c2.67,0,6.07-.76,7.11-.99,.65-1.3,1.6-4.2,2.14-6.04l-1.26-.5c-1.95,3.82-4.16,5.88-7.64,5.88-5.43,0-9.32-4.74-9.32-11.77,0-5.73,3.17-11,9.02-11,3.36,0,6.07,1.45,7.22,5.81l1.34-.27c-.27-2.25-.54-3.97-.84-6.07-1.03-.23-3.78-1.03-6.88-1.03-8.94,0-15.01,5.39-15.01,13.33,0,6.04,4.24,12.65,14.14,12.65Z"/><path class="d" d="M168.69,46.45c7.14,0,13.03-5.04,13.03-13.26,0-7.6-5.77-12.72-12.57-12.72-8.44,0-13.18,6.46-13.18,13.1,0,7.34,5.35,12.87,12.72,12.87Zm-.27-24.45c4.66,0,8.14,4.47,8.14,12.23,0,7.14-3.25,10.7-7.11,10.7-5.08,0-8.33-5.42-8.33-12.19s3.32-10.74,7.3-10.74Z"/><path class="d" d="M187.59,23.68c.73,.88,.76,1.41,.76,4.01v8.14c0,3.4-.19,5.12-.31,6.38-.19,1.72-1.11,2.29-3.25,2.45v1.22h9.24v-1.22c-2.75-.15-3.48-.76-3.67-2.56-.11-1.15-.27-2.87-.27-6.27v-8.98h.08l16.04,19.41h1.61v-15.24c0-3.44,.15-5.23,.3-6.38,.19-1.72,1.03-2.25,3.09-2.37v-1.22h-9.21v1.22c2.75,.15,3.55,.77,3.78,2.41,.08,1.11,.27,2.9,.27,6.34v7.64h-.11l-15.09-17.61h-6.57v1.22c1.72,.15,2.52,.46,3.29,1.41Z"/><path class="d" d="M237.36,39.42l-1.26-.5c-1.95,3.82-4.16,5.88-7.64,5.88-5.43,0-9.32-4.74-9.32-11.77,0-5.73,3.17-11,9.02-11,3.36,0,6.07,1.45,7.22,5.81l1.34-.27c-.27-2.25-.54-3.97-.84-6.07-1.03-.23-3.78-1.03-6.88-1.03-8.94,0-15.01,5.39-15.01,13.33,0,6.04,4.24,12.65,14.14,12.65,2.67,0,6.07-.76,7.1-.99,.65-1.3,1.61-4.2,2.14-6.04Z"/><path class="d" d="M253.52,46.45c7.14,0,13.03-5.04,13.03-13.26,0-7.6-5.77-12.72-12.57-12.72-8.44,0-13.18,6.46-13.18,13.1,0,7.34,5.35,12.87,12.72,12.87Zm-.27-24.45c4.66,0,8.14,4.47,8.14,12.23,0,7.14-3.25,10.7-7.1,10.7-5.08,0-8.33-5.42-8.33-12.19s3.32-10.74,7.3-10.74Z"/><path class="d" d="M280.87,44.66c-2.94-.27-3.28-.61-3.28-3.74v-5.77h.88c1.49,0,2.18,.46,2.79,1.61,1.11,1.95,2.29,4.13,3.4,5.81,1.61,2.45,3.13,3.44,7.26,3.63,.42,0,.88,.04,1.18,.04l.23-1.15c-.88-.27-1.61-.73-2.48-1.72-.84-.84-1.64-1.99-3.02-4.09-1.15-1.72-2.6-4.28-3.21-5.46,2.64-1.11,4.81-2.98,4.81-6.3,0-2.37-1.03-4.05-2.56-5.08-1.53-.99-3.44-1.38-6.57-1.38h-10.28v1.26c2.86,.23,3.21,.54,3.21,3.67v14.94c0,3.17-.42,3.48-3.36,3.74v1.22h11v-1.22Zm-3.28-20.29c0-.88,.08-1.3,.34-1.53,.27-.19,.84-.38,1.83-.38,2.45,0,4.89,1.53,4.89,5.62,0,1.99-.57,3.52-1.91,4.62-.88,.73-2.14,1.03-3.9,1.03h-1.26v-9.36Z"/><path class="d" d="M316.2,42.71c2.9-2.22,4.74-5.58,4.74-10.2,0-3.63-1.41-6.38-3.32-8.18-2.41-2.29-6.07-3.29-10.89-3.29h-11.23v1.26c2.79,.23,3.13,.46,3.13,3.75v14.86c0,3.25-.34,3.48-3.48,3.74v1.22h9.55c4.74,0,8.67-.99,11.5-3.17Zm-13.1-2.06v-15.47c0-1.26,.11-1.83,.42-2.14,.3-.27,1.15-.54,2.64-.54,2.6,0,4.66,.69,6.3,2.1,2.22,1.76,3.48,4.81,3.48,8.6,0,6.53-3.48,11.12-9.32,11.12-2.68,0-3.52-.88-3.52-3.67Z"/><path class="d" d="M324.41,22.31c2.94,.23,3.29,.5,3.29,3.75v14.86c0,3.25-.34,3.48-3.29,3.74v1.22h10.96v-1.22c-2.94-.27-3.25-.54-3.25-3.74v-14.86c0-3.25,.31-3.52,3.25-3.75v-1.26h-10.96v1.26Z"/><path class="d" d="M358.06,40.57c-2.48-6.57-4.89-13.45-7.34-20.1l-1.68,.46-7.83,19.75c-1.3,3.29-1.8,3.63-4.28,3.97v1.22h8.44v-1.22c-2.79-.34-2.98-.8-2.33-2.87,.46-1.53,.99-2.98,1.49-4.39h7.6c.69,1.83,1.34,3.63,1.76,4.89,.54,1.61,.3,2.02-1.99,2.37v1.22h10.35v-1.22c-2.45-.31-2.94-.73-4.2-4.09Zm-12.91-5.04c1.07-2.87,2.1-5.85,3.21-8.79h.11l3.02,8.79h-6.34Z"/><path class="d" d="M147.01,62.06c2.64,.15,3.48,.8,3.71,2.18,.15,1.18,.34,2.71,.34,5.69v3.63c0,6.38-1.91,10.24-6.8,10.24-4.36,0-6.53-3.4-6.53-9.28v-8.44c0-3.55,.34-3.78,3.21-4.01v-1.26h-10.93v1.26c2.9,.27,3.25,.46,3.25,4.01v9.21c0,4.47,1.07,7.3,3.25,9.02,1.8,1.37,4.13,1.91,6.53,1.91,2.64,0,5.23-.92,6.99-2.75,2.18-2.29,2.83-5.54,2.83-9.74v-3.78c0-3.02,.12-4.51,.27-5.62,.19-1.45,1.11-2.14,3.29-2.25v-1.26h-9.4v1.26Z"/><path class="d" d="M175.93,62.02c2.75,.15,3.55,.77,3.78,2.41,.08,1.11,.27,2.9,.27,6.34v7.64h-.11l-15.09-17.61h-6.57v1.22c1.72,.15,2.52,.46,3.29,1.41,.73,.88,.76,1.41,.76,4.01v8.14c0,3.4-.19,5.12-.31,6.38-.19,1.72-1.11,2.29-3.25,2.45v1.22h9.25v-1.22c-2.75-.15-3.48-.76-3.67-2.56-.11-1.15-.27-2.87-.27-6.27v-8.98h.08l16.05,19.41h1.6v-15.24c0-3.44,.15-5.23,.31-6.38,.19-1.72,1.03-2.25,3.09-2.37v-1.22h-9.21v1.22Z"/><path class="d" d="M188.07,62.06c2.94,.23,3.29,.5,3.29,3.75v14.86c0,3.25-.34,3.48-3.29,3.74v1.22h10.96v-1.22c-2.94-.27-3.25-.54-3.25-3.74v-14.86c0-3.25,.31-3.52,3.25-3.75v-1.26h-10.96v1.26Z"/><path class="d" d="M219.09,62.06c3.09,.38,3.21,.84,2.37,3.32-1.11,3.52-3.17,9.02-5.23,14.29h-.08c-1.83-4.66-4.74-12.26-5.81-15.21-.61-1.64-.57-2.02,2.21-2.41v-1.26h-10.66v1.26c2.33,.23,2.94,.69,4.09,3.59,1.8,4.55,5.23,13.41,7.83,20.4h1.64c2.94-7.91,6.61-16.92,7.79-19.71,1.49-3.55,2.14-3.97,4.66-4.28v-1.26h-8.83v1.26Z"/><path class="d" d="M250.56,79.41l-1.26-.23c-.65,1.61-1.34,2.87-2.06,3.67-.88,.99-2.14,1.26-4.47,1.26-1.57,0-2.9-.04-3.59-.42-.73-.42-.92-1.3-.92-3.13v-6.8h2.94c3.28,0,3.67,.15,4.16,2.9h1.3v-7.56h-1.3c-.5,2.64-.88,2.87-4.16,2.87h-2.94v-8.29c0-1.22,.11-1.3,1.45-1.3h2.22c2.37,0,3.4,.27,4.01,.99,.61,.73,1.07,1.83,1.41,3.28l1.3-.19c-.15-2.22-.34-4.89-.38-5.66h-17.61v1.26c2.79,.23,3.13,.38,3.13,3.75v14.86c0,3.21-.34,3.48-3.67,3.74v1.22h19.1c.34-1.15,1.11-4.7,1.34-6.23Z"/><path class="d" d="M276.69,84.83c-.88-.27-1.61-.73-2.48-1.72-.84-.84-1.64-1.99-3.02-4.09-1.15-1.72-2.6-4.28-3.21-5.46,2.64-1.11,4.81-2.98,4.81-6.3,0-2.37-1.03-4.05-2.56-5.08-1.53-.99-3.44-1.38-6.57-1.38h-10.28v1.26c2.87,.23,3.21,.54,3.21,3.67v14.94c0,3.17-.42,3.48-3.36,3.74v1.22h11v-1.22c-2.94-.27-3.28-.61-3.28-3.74v-5.77h.88c1.49,0,2.18,.46,2.79,1.61,1.11,1.95,2.29,4.13,3.4,5.81,1.61,2.45,3.13,3.44,7.26,3.63,.42,0,.88,.04,1.18,.04l.23-1.15Zm-10.58-12.38c-.88,.73-2.14,1.03-3.9,1.03h-1.26v-9.36c0-.88,.08-1.3,.34-1.53,.27-.19,.84-.38,1.83-.38,2.45,0,4.89,1.53,4.89,5.62,0,1.99-.57,3.52-1.91,4.62Z"/><path class="d" d="M288.18,70.85c-3.25-1.61-4.81-2.87-4.81-5.23,0-2.14,1.49-3.9,3.9-3.9,3.17,0,4.47,2.75,5.23,5.16l1.22-.27c-.31-2.41-.54-4.01-.69-5.43-.99-.31-2.94-.96-5.16-.96-5.23,0-8.4,3.25-8.4,7.22s3.13,5.92,6.53,7.68c2.87,1.49,4.7,2.9,4.7,5.35s-1.57,4.24-4.13,4.24c-3.74,0-5.81-4.13-6.49-6.53l-1.3,.38c.27,2.14,.77,5.35,1.11,6.27,.46,.23,1.15,.5,2.18,.8,1.03,.34,2.33,.57,3.78,.57,5.43,0,9.02-3.32,9.02-7.56,0-3.97-3.06-5.96-6.69-7.79Z"/><path class="d" d="M297.88,62.06c2.94,.23,3.29,.5,3.29,3.75v14.86c0,3.25-.34,3.48-3.29,3.74v1.22h10.96v-1.22c-2.94-.27-3.25-.54-3.25-3.74v-14.86c0-3.25,.3-3.52,3.25-3.75v-1.26h-10.96v1.26Z"/><path class="d" d="M333.03,59.85c-.65,.73-1.11,.95-2.1,.95h-15.28c-1.07,0-1.57-.08-2.14-.95h-.88c-.08,1.99-.31,4.7-.46,7.3h1.3c.46-1.83,.88-3.06,1.45-3.71,.54-.73,1.26-1.07,4.39-1.07h1.72v18.3c0,3.17-.38,3.48-3.67,3.74v1.22h11.92v-1.22c-3.48-.27-3.82-.57-3.82-3.74v-18.3h2.06c2.48,0,3.32,.23,4.01,.99,.57,.65,1.03,1.83,1.49,3.74l1.26-.08c-.19-2.37-.38-5.54-.38-7.18h-.88Z"/><path class="d" d="M352.5,62.06c2.86,.31,2.94,.77,2.21,2.45-.95,2.33-2.94,5.96-4.16,8.25-1.57-2.83-3.21-5.77-4.66-8.56-.69-1.34-.73-1.8,1.83-2.14v-1.26h-10.24v1.26c2.18,.27,2.71,.65,4.2,3.21,2.18,3.86,3.59,6.38,4.74,8.56,.46,.92,.61,1.3,.61,2.18v4.55c0,3.36-.34,3.63-3.63,3.86v1.22h11.8v-1.22c-3.44-.27-3.74-.5-3.74-3.86v-5.01c0-1.11,.15-1.57,.69-2.56,1.83-3.51,2.94-5.35,4.47-7.79,1.41-2.29,2.06-2.87,4.59-3.13v-1.26h-8.71v1.26Z"/><path class="d" d="M204.89,99.67c1.5,.12,1.67,.25,1.67,1.9v7.56c0,1.65-.17,1.77-1.67,1.9v.62h5.57v-.62c-1.5-.13-1.65-.27-1.65-1.9v-7.56c0-1.65,.16-1.79,1.65-1.9v-.64h-5.57v.64Z"/><path class="d" d="M226.08,110.37c-.43-.43-.84-1.01-1.53-2.08-.58-.87-1.32-2.18-1.63-2.78,1.34-.56,2.45-1.51,2.45-3.21,0-1.2-.52-2.06-1.3-2.58-.78-.5-1.75-.7-3.34-.7h-5.23v.64c1.46,.12,1.63,.27,1.63,1.87v7.6c0,1.61-.21,1.77-1.71,1.9v.62h5.6v-.62c-1.5-.13-1.67-.31-1.67-1.9v-2.93h.45c.76,0,1.11,.23,1.42,.82,.56,.99,1.17,2.1,1.73,2.95,.82,1.24,1.59,1.75,3.69,1.84,.21,0,.45,.02,.6,.02l.12-.58c-.45-.14-.81-.37-1.26-.87Zm-6.1-4.9h-.64v-4.76c0-.45,.04-.66,.17-.78,.14-.1,.43-.2,.93-.2,1.24,0,2.49,.78,2.49,2.86,0,1.01-.29,1.79-.97,2.35-.45,.37-1.09,.52-1.98,.52Z"/><path class="d" d="M238.93,99.67c1.57,.2,1.63,.43,1.21,1.69-.56,1.79-1.61,4.58-2.66,7.26h-.04c-.93-2.37-2.41-6.23-2.95-7.73-.31-.84-.29-1.03,1.13-1.22v-.64h-5.42v.64c1.18,.12,1.5,.35,2.08,1.83,.91,2.31,2.66,6.82,3.98,10.37h.84c1.5-4.02,3.36-8.61,3.96-10.02,.76-1.81,1.09-2.02,2.37-2.18v-.64h-4.49v.64Z"/><path class="d" d="M247.88,99.67c1.5,.12,1.67,.25,1.67,1.9v7.56c0,1.65-.17,1.77-1.67,1.9v.62h5.57v-.62c-1.5-.13-1.65-.27-1.65-1.9v-7.56c0-1.65,.16-1.79,1.65-1.9v-.64h-5.57v.64Z"/><path class="d" d="M267.06,99.65c1.4,.08,1.81,.39,1.92,1.22,.04,.56,.14,1.48,.14,3.22v3.89h-.06l-7.67-8.95h-3.34v.62c.87,.08,1.28,.23,1.67,.72,.37,.45,.39,.72,.39,2.04v4.14c0,1.73-.1,2.6-.16,3.25-.1,.87-.56,1.17-1.65,1.24v.62h4.7v-.62c-1.4-.08-1.77-.39-1.87-1.3-.06-.58-.14-1.46-.14-3.19v-4.56h.04l8.16,9.87h.81v-7.75c0-1.75,.08-2.66,.16-3.24,.1-.87,.53-1.15,1.57-1.21v-.62h-4.68v.62Z"/><path class="d" d="M284.84,110.24c-.45,.5-1.09,.64-2.27,.64-.8,0-1.48-.02-1.83-.21-.37-.21-.47-.66-.47-1.59v-3.46h1.5c1.67,0,1.87,.08,2.12,1.48h.66v-3.85h-.66c-.25,1.34-.45,1.46-2.12,1.46h-1.5v-4.22c0-.62,.06-.66,.74-.66h1.13c1.2,0,1.73,.14,2.04,.5,.31,.37,.54,.93,.72,1.67l.66-.1c-.08-1.13-.17-2.49-.19-2.87h-8.95v.64c1.42,.12,1.59,.2,1.59,1.9v7.56c0,1.63-.17,1.77-1.87,1.9v.62h9.71c.17-.58,.56-2.39,.68-3.17l-.64-.12c-.33,.82-.68,1.46-1.05,1.87Z"/><path class="d" d="M55.3,0C24.81,0,0,24.81,0,55.3v59.39H110.6V55.3C110.6,24.81,85.79,0,55.3,0Zm52.09,111.49H3.21V55.3C3.21,26.58,26.57,3.21,55.3,3.21s52.09,23.37,52.09,52.1v56.19Z"/><path class="d" d="M55.3,6.89C28.61,6.89,6.89,28.61,6.89,55.3v52.5H103.71V55.3c0-26.69-21.72-48.41-48.41-48.41ZM10.1,91.51l3.69-1.76L31.86,49.37l12.93-3.17-14.76,40.27-19.93,9.17v-4.14Zm66.96,5.08l16.49,8H17.05l16.49-8h43.51Zm3.52-10.12l-14.76-40.27,12.93,3.17,18.07,40.38,3.69,1.76v4.14l-19.93-9.17Zm19.93-5.11l-6.17-3.27-13.81-30.86-17.26-4.23v35.09h-5.77V34.06h14.99v-4.4h-14.99v-12.18h-4.4v12.18h-14.99v4.4h14.99v44.03h-5.77V43l-17.26,4.23-13.81,30.86-6.17,3.27v-26.06C10.1,30.38,30.38,10.1,55.3,10.1s45.2,20.28,45.2,45.2v26.06Z"/></g></g></g></svg>